<?xml version="1.0" encoding="UTF-8" standalone="no"?>
<!-- Created with Inkscape (http://www.inkscape.org/) -->

<svg
   width="32.384998mm"
   height="33.739704mm"
   viewBox="0 0 32.384998 33.739704"
   version="1.1"
   id="svg1"
   xmlns="http://www.w3.org/2000/svg"
   xmlns:svg="http://www.w3.org/2000/svg">
  <defs
     id="defs1" />
  <g
     id="layer1"
     transform="translate(-70.792572,-86.593604)">
    <path
       style="fill:#800000;fill-opacity:1;fill-rule:nonzero;stroke:none;stroke-width:0.264583"
       d="m 79.291022,108.25769 h 18.52083 v 2.87866 h -19.09233 v 0.6985 0.0212 0.71967 h 19.09233 v 2.8575 l -18.52083,0.0212 -1.016,-0.0423 -1.10066,-0.21167 -0.508,-0.254 -0.16934,-0.14816 -0.16933,-0.16934 -0.23283,-0.52916 -0.21167,-1.10067 -0.0212,-0.99483 v 0 -0.0212 -0.127 -0.0212 -0.127 0 0 l 0.0212,-1.016 0.21167,-1.10067 0.23283,-0.508 0.16933,-0.16933 0.16934,-0.16934 0.508,-0.23283 1.10066,-0.23283 z"
       id="path2" />
    <path
       style="fill:#800000;fill-opacity:1;fill-rule:nonzero;stroke:none;stroke-width:0.264583"
       d="m 94.700352,99.727521 h -18.52083 v 2.878669 h 19.09233 v 0.6985 0.0212 0.71967 h -19.09233 v 2.8575 h 18.52083 l 1.016,-0.0212 1.10067,-0.21167 0.508,-0.254 0.1905,-0.14817 0.14817,-0.1905 0.23283,-0.508 0.21167,-1.10066 0.0423,-1.016 v 0 0 -0.127 -0.0212 -0.127 0 0 l -0.0423,-1.016 -0.21167,-1.10067 -0.23283,-0.508 -0.14817,-0.1905 -0.1905,-0.14817 -0.508,-0.232832 -1.10067,-0.232833 z"
       id="path3" />
    <path
       style="fill:#800000;fill-opacity:1;fill-rule:nonzero;stroke:none;stroke-width:0.264583"
       d="m 79.248692,91.197354 h 18.542 v 2.8575 h -19.1135 v 0.719667 0.02117 0.6985 h 19.1135 v 2.878666 h -18.542 l -1.016,-0.02117 -1.10067,-0.232834 -0.508,-0.232833 -0.16933,-0.148167 -0.14817,-0.1905 -0.23283,-0.508 -0.23283,-1.100666 -0.0212,-1.016 v 0 0 -0.127 -0.02117 -0.127 0 0 l 0.0212,-1.016 0.23283,-1.100667 0.23283,-0.508 0.14817,-0.1905 0.16933,-0.148166 0.508,-0.254 1.10067,-0.211667 z"
       id="path1" />
    <path
       style="fill:none;stroke:#800000;stroke-width:2.6035px;stroke-linecap:butt;stroke-linejoin:miter;stroke-miterlimit:4;stroke-dasharray:none;stroke-opacity:1"
       d="m 74.147522,87.895354 h 25.654 l 0.423328,0.02117 0.74084,0.3175 0.55033,0.5715 0.3175,0.740833 0.0423,0.423334 v 27.008669 l -0.0423,0.42333 -0.3175,0.74083 -0.55033,0.55034 -0.74084,0.3175 -0.423328,0.0212 h -25.654 l -0.42333,-0.0212 -0.74083,-0.3175 -0.55034,-0.55034 -0.3175,-0.74083 -0.0212,-0.42333 V 89.969688 l 0.0212,-0.423334 0.3175,-0.740833 0.55034,-0.5715 0.74083,-0.3175 z"
       id="path4" />
  </g>
</svg>
